<mxfile host="app.diagrams.net" modified="2024-03-10T04:30:38.471Z" agent="Mozilla/5.0 (Macintosh; Intel Mac OS X 10_15_7) AppleWebKit/537.36 (KHTML, like Gecko) Chrome/122.0.0.0 Safari/537.36" etag="q-NI3cQE-zmu1YcpHCXJ" version="24.0.1" type="device">
  <diagram name="第 1 页" id="g8rvtbovpcAflCqMb8RJ">
    <mxGraphModel dx="892" dy="553" grid="1" gridSize="10" guides="1" tooltips="1" connect="1" arrows="1" fold="1" page="1" pageScale="1" pageWidth="827" pageHeight="1169" math="0" shadow="0">
      <root>
        <mxCell id="0" />
        <mxCell id="1" parent="0" />
        <mxCell id="K6t5aC2nOHL5v6KHXai5-65" value="" style="rounded=0;whiteSpace=wrap;html=1;" vertex="1" parent="1">
          <mxGeometry x="30" y="1185" width="160" height="165" as="geometry" />
        </mxCell>
        <mxCell id="K6t5aC2nOHL5v6KHXai5-1" value="babel" style="text;html=1;align=center;verticalAlign=middle;resizable=0;points=[];autosize=1;strokeColor=none;fillColor=none;" vertex="1" parent="1">
          <mxGeometry x="30" y="10" width="50" height="30" as="geometry" />
        </mxCell>
        <mxCell id="K6t5aC2nOHL5v6KHXai5-4" value="" style="edgeStyle=orthogonalEdgeStyle;rounded=0;orthogonalLoop=1;jettySize=auto;html=1;" edge="1" parent="1" source="K6t5aC2nOHL5v6KHXai5-2" target="K6t5aC2nOHL5v6KHXai5-3">
          <mxGeometry relative="1" as="geometry" />
        </mxCell>
        <mxCell id="K6t5aC2nOHL5v6KHXai5-2" value="ES" style="rounded=0;whiteSpace=wrap;html=1;" vertex="1" parent="1">
          <mxGeometry x="30" y="60" width="120" height="60" as="geometry" />
        </mxCell>
        <mxCell id="K6t5aC2nOHL5v6KHXai5-6" value="" style="edgeStyle=orthogonalEdgeStyle;rounded=0;orthogonalLoop=1;jettySize=auto;html=1;" edge="1" parent="1" source="K6t5aC2nOHL5v6KHXai5-3" target="K6t5aC2nOHL5v6KHXai5-5">
          <mxGeometry relative="1" as="geometry" />
        </mxCell>
        <mxCell id="K6t5aC2nOHL5v6KHXai5-13" value="" style="edgeStyle=orthogonalEdgeStyle;rounded=0;orthogonalLoop=1;jettySize=auto;html=1;" edge="1" parent="1" source="K6t5aC2nOHL5v6KHXai5-3" target="K6t5aC2nOHL5v6KHXai5-12">
          <mxGeometry relative="1" as="geometry" />
        </mxCell>
        <mxCell id="K6t5aC2nOHL5v6KHXai5-3" value="babel" style="rounded=0;whiteSpace=wrap;html=1;" vertex="1" parent="1">
          <mxGeometry x="230" y="60" width="120" height="60" as="geometry" />
        </mxCell>
        <mxCell id="K6t5aC2nOHL5v6KHXai5-5" value="plugins" style="rounded=0;whiteSpace=wrap;html=1;" vertex="1" parent="1">
          <mxGeometry x="255" y="140" width="70" height="20" as="geometry" />
        </mxCell>
        <mxCell id="K6t5aC2nOHL5v6KHXai5-7" value="plugin" style="rounded=1;whiteSpace=wrap;html=1;" vertex="1" parent="1">
          <mxGeometry x="255" y="190" width="50" height="20" as="geometry" />
        </mxCell>
        <mxCell id="K6t5aC2nOHL5v6KHXai5-11" value="" style="edgeStyle=orthogonalEdgeStyle;rounded=0;orthogonalLoop=1;jettySize=auto;html=1;" edge="1" parent="1" source="K6t5aC2nOHL5v6KHXai5-8" target="K6t5aC2nOHL5v6KHXai5-5">
          <mxGeometry relative="1" as="geometry" />
        </mxCell>
        <mxCell id="K6t5aC2nOHL5v6KHXai5-8" value="plugin" style="rounded=1;whiteSpace=wrap;html=1;" vertex="1" parent="1">
          <mxGeometry x="265" y="200" width="50" height="20" as="geometry" />
        </mxCell>
        <mxCell id="K6t5aC2nOHL5v6KHXai5-9" value="plugin" style="rounded=1;whiteSpace=wrap;html=1;" vertex="1" parent="1">
          <mxGeometry x="275" y="210" width="50" height="20" as="geometry" />
        </mxCell>
        <mxCell id="K6t5aC2nOHL5v6KHXai5-16" value="" style="edgeStyle=orthogonalEdgeStyle;rounded=0;orthogonalLoop=1;jettySize=auto;html=1;" edge="1" parent="1" source="K6t5aC2nOHL5v6KHXai5-12" target="K6t5aC2nOHL5v6KHXai5-15">
          <mxGeometry relative="1" as="geometry" />
        </mxCell>
        <mxCell id="K6t5aC2nOHL5v6KHXai5-12" value="JS" style="rounded=0;whiteSpace=wrap;html=1;" vertex="1" parent="1">
          <mxGeometry x="430" y="60" width="120" height="60" as="geometry" />
        </mxCell>
        <mxCell id="K6t5aC2nOHL5v6KHXai5-15" value="browser" style="rounded=0;whiteSpace=wrap;html=1;" vertex="1" parent="1">
          <mxGeometry x="630" y="60" width="120" height="60" as="geometry" />
        </mxCell>
        <mxCell id="K6t5aC2nOHL5v6KHXai5-19" value="" style="edgeStyle=orthogonalEdgeStyle;rounded=0;orthogonalLoop=1;jettySize=auto;html=1;" edge="1" parent="1" source="K6t5aC2nOHL5v6KHXai5-17" target="K6t5aC2nOHL5v6KHXai5-18">
          <mxGeometry relative="1" as="geometry" />
        </mxCell>
        <mxCell id="K6t5aC2nOHL5v6KHXai5-17" value="code" style="rounded=0;whiteSpace=wrap;html=1;" vertex="1" parent="1">
          <mxGeometry x="30" y="260" width="120" height="60" as="geometry" />
        </mxCell>
        <mxCell id="K6t5aC2nOHL5v6KHXai5-21" value="" style="edgeStyle=orthogonalEdgeStyle;rounded=0;orthogonalLoop=1;jettySize=auto;html=1;" edge="1" parent="1" source="K6t5aC2nOHL5v6KHXai5-18" target="K6t5aC2nOHL5v6KHXai5-20">
          <mxGeometry relative="1" as="geometry" />
        </mxCell>
        <mxCell id="K6t5aC2nOHL5v6KHXai5-18" value="AST" style="rounded=0;whiteSpace=wrap;html=1;" vertex="1" parent="1">
          <mxGeometry x="230" y="260" width="120" height="60" as="geometry" />
        </mxCell>
        <mxCell id="K6t5aC2nOHL5v6KHXai5-20" value="code" style="rounded=0;whiteSpace=wrap;html=1;" vertex="1" parent="1">
          <mxGeometry x="430" y="260" width="120" height="60" as="geometry" />
        </mxCell>
        <mxCell id="K6t5aC2nOHL5v6KHXai5-22" value="TSC" style="text;html=1;align=center;verticalAlign=middle;resizable=0;points=[];autosize=1;strokeColor=none;fillColor=none;" vertex="1" parent="1">
          <mxGeometry x="30" y="390" width="50" height="30" as="geometry" />
        </mxCell>
        <mxCell id="K6t5aC2nOHL5v6KHXai5-23" value="https://astexplorer.net/" style="text;html=1;align=center;verticalAlign=middle;resizable=0;points=[];autosize=1;strokeColor=none;fillColor=none;" vertex="1" parent="1">
          <mxGeometry x="30" y="350" width="140" height="30" as="geometry" />
        </mxCell>
        <mxCell id="K6t5aC2nOHL5v6KHXai5-24" value="network" style="rounded=0;whiteSpace=wrap;html=1;" vertex="1" parent="1">
          <mxGeometry x="40" y="470" width="120" height="40" as="geometry" />
        </mxCell>
        <mxCell id="K6t5aC2nOHL5v6KHXai5-25" value="" style="shape=curlyBracket;whiteSpace=wrap;html=1;rounded=1;labelPosition=left;verticalLabelPosition=middle;align=right;verticalAlign=middle;" vertex="1" parent="1">
          <mxGeometry x="180" y="430" width="20" height="120" as="geometry" />
        </mxCell>
        <mxCell id="K6t5aC2nOHL5v6KHXai5-28" value="" style="edgeStyle=orthogonalEdgeStyle;rounded=0;orthogonalLoop=1;jettySize=auto;html=1;" edge="1" parent="1" source="K6t5aC2nOHL5v6KHXai5-26" target="K6t5aC2nOHL5v6KHXai5-27">
          <mxGeometry relative="1" as="geometry" />
        </mxCell>
        <mxCell id="K6t5aC2nOHL5v6KHXai5-26" value="&amp;nbsp;mock server" style="rounded=1;whiteSpace=wrap;html=1;" vertex="1" parent="1">
          <mxGeometry x="225" y="410" width="100" height="40" as="geometry" />
        </mxCell>
        <mxCell id="K6t5aC2nOHL5v6KHXai5-27" value="本地文件 &amp;lt; = &amp;gt; 请求服务" style="rounded=1;whiteSpace=wrap;html=1;" vertex="1" parent="1">
          <mxGeometry x="405" y="410" width="205" height="40" as="geometry" />
        </mxCell>
        <mxCell id="K6t5aC2nOHL5v6KHXai5-29" value="list.js" style="text;html=1;align=center;verticalAlign=middle;resizable=0;points=[];autosize=1;strokeColor=none;fillColor=none;" vertex="1" parent="1">
          <mxGeometry x="435" y="334" width="50" height="30" as="geometry" />
        </mxCell>
        <mxCell id="K6t5aC2nOHL5v6KHXai5-30" value="detail.js" style="text;html=1;align=center;verticalAlign=middle;resizable=0;points=[];autosize=1;strokeColor=none;fillColor=none;" vertex="1" parent="1">
          <mxGeometry x="430" y="356" width="60" height="30" as="geometry" />
        </mxCell>
        <mxCell id="K6t5aC2nOHL5v6KHXai5-31" value="form.js" style="text;html=1;align=center;verticalAlign=middle;resizable=0;points=[];autosize=1;strokeColor=none;fillColor=none;" vertex="1" parent="1">
          <mxGeometry x="430" y="380" width="60" height="30" as="geometry" />
        </mxCell>
        <mxCell id="K6t5aC2nOHL5v6KHXai5-32" value="/list" style="text;html=1;align=center;verticalAlign=middle;resizable=0;points=[];autosize=1;strokeColor=none;fillColor=none;" vertex="1" parent="1">
          <mxGeometry x="530" y="333" width="40" height="30" as="geometry" />
        </mxCell>
        <mxCell id="K6t5aC2nOHL5v6KHXai5-33" value="/detail" style="text;html=1;align=center;verticalAlign=middle;resizable=0;points=[];autosize=1;strokeColor=none;fillColor=none;" vertex="1" parent="1">
          <mxGeometry x="520" y="355" width="60" height="30" as="geometry" />
        </mxCell>
        <mxCell id="K6t5aC2nOHL5v6KHXai5-34" value="/form" style="text;html=1;align=center;verticalAlign=middle;resizable=0;points=[];autosize=1;strokeColor=none;fillColor=none;" vertex="1" parent="1">
          <mxGeometry x="525" y="379" width="50" height="30" as="geometry" />
        </mxCell>
        <mxCell id="K6t5aC2nOHL5v6KHXai5-35" value="localhost:3000" style="text;html=1;align=center;verticalAlign=middle;resizable=0;points=[];autosize=1;strokeColor=none;fillColor=none;" vertex="1" parent="1">
          <mxGeometry x="610" y="415" width="100" height="30" as="geometry" />
        </mxCell>
        <mxCell id="K6t5aC2nOHL5v6KHXai5-36" value="vue.prototype.$ajax =&amp;gt; this.$ajax.post()&lt;div&gt;C端自动登录 ｜ cookie 权限位 =&amp;gt; intercetpors ｜ login()&lt;br&gt;请求收集 =&amp;gt; 下沉收发器 =&amp;gt; vuex&lt;/div&gt;" style="text;html=1;align=left;verticalAlign=middle;resizable=0;points=[];autosize=1;strokeColor=default;fillColor=none;dashed=1;" vertex="1" parent="1">
          <mxGeometry x="170" y="660" width="320" height="60" as="geometry" />
        </mxCell>
        <mxCell id="K6t5aC2nOHL5v6KHXai5-37" value="网络层" style="text;html=1;align=center;verticalAlign=middle;resizable=0;points=[];autosize=1;strokeColor=none;fillColor=none;" vertex="1" parent="1">
          <mxGeometry x="300" y="630" width="60" height="30" as="geometry" />
        </mxCell>
        <mxCell id="K6t5aC2nOHL5v6KHXai5-38" value="统一请求器" style="rounded=1;whiteSpace=wrap;html=1;" vertex="1" parent="1">
          <mxGeometry x="226" y="470" width="100" height="40" as="geometry" />
        </mxCell>
        <mxCell id="K6t5aC2nOHL5v6KHXai5-39" value="收发下沉" style="rounded=1;whiteSpace=wrap;html=1;" vertex="1" parent="1">
          <mxGeometry x="226" y="530" width="100" height="40" as="geometry" />
        </mxCell>
        <mxCell id="K6t5aC2nOHL5v6KHXai5-40" value="ajax请求" style="rounded=0;whiteSpace=wrap;html=1;" vertex="1" parent="1">
          <mxGeometry x="60" y="800" width="160" height="70" as="geometry" />
        </mxCell>
        <mxCell id="K6t5aC2nOHL5v6KHXai5-41" value="" style="endArrow=classic;html=1;rounded=0;" edge="1" parent="1">
          <mxGeometry width="50" height="50" relative="1" as="geometry">
            <mxPoint x="100" y="520" as="sourcePoint" />
            <mxPoint x="100" y="790" as="targetPoint" />
          </mxGeometry>
        </mxCell>
        <mxCell id="K6t5aC2nOHL5v6KHXai5-42" value="websocket" style="rounded=0;whiteSpace=wrap;html=1;" vertex="1" parent="1">
          <mxGeometry x="240" y="800" width="160" height="70" as="geometry" />
        </mxCell>
        <mxCell id="K6t5aC2nOHL5v6KHXai5-43" value="native" style="rounded=0;whiteSpace=wrap;html=1;" vertex="1" parent="1">
          <mxGeometry x="417" y="800" width="160" height="70" as="geometry" />
        </mxCell>
        <mxCell id="K6t5aC2nOHL5v6KHXai5-44" value="webRTC" style="rounded=0;whiteSpace=wrap;html=1;" vertex="1" parent="1">
          <mxGeometry x="600" y="800" width="120" height="70" as="geometry" />
        </mxCell>
        <mxCell id="K6t5aC2nOHL5v6KHXai5-47" value="" style="edgeStyle=orthogonalEdgeStyle;rounded=0;orthogonalLoop=1;jettySize=auto;html=1;" edge="1" parent="1" source="K6t5aC2nOHL5v6KHXai5-45" target="K6t5aC2nOHL5v6KHXai5-46">
          <mxGeometry relative="1" as="geometry" />
        </mxCell>
        <mxCell id="K6t5aC2nOHL5v6KHXai5-45" value="network adaptor" style="rounded=0;whiteSpace=wrap;html=1;" vertex="1" parent="1">
          <mxGeometry x="60" y="890" width="660" height="40" as="geometry" />
        </mxCell>
        <mxCell id="K6t5aC2nOHL5v6KHXai5-46" value="业务代码" style="rounded=0;whiteSpace=wrap;html=1;" vertex="1" parent="1">
          <mxGeometry x="170" y="1010" width="440" height="40" as="geometry" />
        </mxCell>
        <mxCell id="K6t5aC2nOHL5v6KHXai5-48" value="process" style="rounded=0;whiteSpace=wrap;html=1;" vertex="1" parent="1">
          <mxGeometry x="220" y="940" width="80" height="40" as="geometry" />
        </mxCell>
        <mxCell id="K6t5aC2nOHL5v6KHXai5-49" value="process" style="rounded=0;whiteSpace=wrap;html=1;" vertex="1" parent="1">
          <mxGeometry x="230" y="950" width="80" height="40" as="geometry" />
        </mxCell>
        <mxCell id="K6t5aC2nOHL5v6KHXai5-50" value="process" style="rounded=0;whiteSpace=wrap;html=1;" vertex="1" parent="1">
          <mxGeometry x="240" y="960" width="80" height="40" as="geometry" />
        </mxCell>
        <mxCell id="K6t5aC2nOHL5v6KHXai5-51" value="co库" style="text;html=1;align=center;verticalAlign=middle;resizable=0;points=[];autosize=1;strokeColor=none;fillColor=none;" vertex="1" parent="1">
          <mxGeometry x="130" y="955" width="50" height="30" as="geometry" />
        </mxCell>
        <mxCell id="K6t5aC2nOHL5v6KHXai5-52" value="proxy_time" style="text;html=1;align=center;verticalAlign=middle;resizable=0;points=[];autosize=1;strokeColor=none;fillColor=none;" vertex="1" parent="1">
          <mxGeometry x="90" y="1098" width="80" height="30" as="geometry" />
        </mxCell>
        <mxCell id="K6t5aC2nOHL5v6KHXai5-56" value="" style="edgeStyle=orthogonalEdgeStyle;rounded=0;orthogonalLoop=1;jettySize=auto;html=1;" edge="1" parent="1" source="K6t5aC2nOHL5v6KHXai5-53" target="K6t5aC2nOHL5v6KHXai5-55">
          <mxGeometry relative="1" as="geometry" />
        </mxCell>
        <mxCell id="K6t5aC2nOHL5v6KHXai5-53" value="gulp" style="text;html=1;align=center;verticalAlign=middle;resizable=0;points=[];autosize=1;strokeColor=none;fillColor=none;" vertex="1" parent="1">
          <mxGeometry x="510" y="190" width="50" height="30" as="geometry" />
        </mxCell>
        <mxCell id="K6t5aC2nOHL5v6KHXai5-58" value="" style="edgeStyle=orthogonalEdgeStyle;rounded=0;orthogonalLoop=1;jettySize=auto;html=1;" edge="1" parent="1" source="K6t5aC2nOHL5v6KHXai5-55" target="K6t5aC2nOHL5v6KHXai5-57">
          <mxGeometry relative="1" as="geometry" />
        </mxCell>
        <mxCell id="K6t5aC2nOHL5v6KHXai5-60" value="" style="edgeStyle=orthogonalEdgeStyle;rounded=0;orthogonalLoop=1;jettySize=auto;html=1;" edge="1" parent="1" source="K6t5aC2nOHL5v6KHXai5-55" target="K6t5aC2nOHL5v6KHXai5-59">
          <mxGeometry relative="1" as="geometry" />
        </mxCell>
        <mxCell id="K6t5aC2nOHL5v6KHXai5-55" value="webpack" style="text;html=1;align=center;verticalAlign=middle;resizable=0;points=[];autosize=1;strokeColor=none;fillColor=none;" vertex="1" parent="1">
          <mxGeometry x="630" y="190" width="70" height="30" as="geometry" />
        </mxCell>
        <mxCell id="K6t5aC2nOHL5v6KHXai5-57" value="rust" style="text;html=1;align=center;verticalAlign=middle;resizable=0;points=[];autosize=1;strokeColor=none;fillColor=none;" vertex="1" parent="1">
          <mxGeometry x="755" y="190" width="40" height="30" as="geometry" />
        </mxCell>
        <mxCell id="K6t5aC2nOHL5v6KHXai5-59" value="webpack+" style="text;html=1;align=center;verticalAlign=middle;resizable=0;points=[];autosize=1;strokeColor=none;fillColor=none;" vertex="1" parent="1">
          <mxGeometry x="625" y="250" width="80" height="30" as="geometry" />
        </mxCell>
        <mxCell id="K6t5aC2nOHL5v6KHXai5-61" value="vite" style="text;html=1;align=center;verticalAlign=middle;resizable=0;points=[];autosize=1;strokeColor=none;fillColor=none;" vertex="1" parent="1">
          <mxGeometry x="750" y="248" width="40" height="30" as="geometry" />
        </mxCell>
        <mxCell id="K6t5aC2nOHL5v6KHXai5-62" value="1" style="rounded=0;whiteSpace=wrap;html=1;" vertex="1" parent="1">
          <mxGeometry x="40" y="1200" width="120" height="30" as="geometry" />
        </mxCell>
        <mxCell id="K6t5aC2nOHL5v6KHXai5-67" value="" style="edgeStyle=orthogonalEdgeStyle;rounded=0;orthogonalLoop=1;jettySize=auto;html=1;" edge="1" parent="1" source="K6t5aC2nOHL5v6KHXai5-63" target="K6t5aC2nOHL5v6KHXai5-66">
          <mxGeometry relative="1" as="geometry" />
        </mxCell>
        <mxCell id="K6t5aC2nOHL5v6KHXai5-63" value="2" style="rounded=0;whiteSpace=wrap;html=1;" vertex="1" parent="1">
          <mxGeometry x="60" y="1250" width="120" height="30" as="geometry" />
        </mxCell>
        <mxCell id="K6t5aC2nOHL5v6KHXai5-64" value="3" style="rounded=0;whiteSpace=wrap;html=1;" vertex="1" parent="1">
          <mxGeometry x="40" y="1300" width="120" height="30" as="geometry" />
        </mxCell>
        <mxCell id="K6t5aC2nOHL5v6KHXai5-66" value="item" style="rounded=0;whiteSpace=wrap;html=1;" vertex="1" parent="1">
          <mxGeometry x="255" y="1250" width="120" height="30" as="geometry" />
        </mxCell>
        <mxCell id="K6t5aC2nOHL5v6KHXai5-68" value="tree" style="text;html=1;align=center;verticalAlign=middle;resizable=0;points=[];autosize=1;strokeColor=none;fillColor=none;" vertex="1" parent="1">
          <mxGeometry x="90" y="1350" width="40" height="30" as="geometry" />
        </mxCell>
        <mxCell id="K6t5aC2nOHL5v6KHXai5-69" value="" style="shape=curlyBracket;whiteSpace=wrap;html=1;rounded=1;labelPosition=left;verticalLabelPosition=middle;align=right;verticalAlign=middle;" vertex="1" parent="1">
          <mxGeometry x="385" y="1205" width="20" height="120" as="geometry" />
        </mxCell>
        <mxCell id="K6t5aC2nOHL5v6KHXai5-70" value="level" style="text;html=1;align=center;verticalAlign=middle;resizable=0;points=[];autosize=1;strokeColor=none;fillColor=none;" vertex="1" parent="1">
          <mxGeometry x="405" y="1188" width="50" height="30" as="geometry" />
        </mxCell>
        <mxCell id="K6t5aC2nOHL5v6KHXai5-71" value="expand" style="text;html=1;align=center;verticalAlign=middle;resizable=0;points=[];autosize=1;strokeColor=none;fillColor=none;" vertex="1" parent="1">
          <mxGeometry x="400" y="1220" width="60" height="30" as="geometry" />
        </mxCell>
        <mxCell id="K6t5aC2nOHL5v6KHXai5-72" value="checked" style="text;html=1;align=center;verticalAlign=middle;resizable=0;points=[];autosize=1;strokeColor=none;fillColor=none;" vertex="1" parent="1">
          <mxGeometry x="395" y="1250" width="70" height="30" as="geometry" />
        </mxCell>
        <mxCell id="K6t5aC2nOHL5v6KHXai5-73" value="nid" style="text;html=1;align=center;verticalAlign=middle;resizable=0;points=[];autosize=1;strokeColor=none;fillColor=none;" vertex="1" parent="1">
          <mxGeometry x="415" y="1280" width="40" height="30" as="geometry" />
        </mxCell>
        <mxCell id="K6t5aC2nOHL5v6KHXai5-74" value="..." style="text;html=1;align=center;verticalAlign=middle;resizable=0;points=[];autosize=1;strokeColor=none;fillColor=none;" vertex="1" parent="1">
          <mxGeometry x="422" y="1310" width="30" height="30" as="geometry" />
        </mxCell>
        <mxCell id="K6t5aC2nOHL5v6KHXai5-75" value="1. 拍平&lt;div&gt;2. 属性来源方式&lt;/div&gt;&lt;div&gt;3. 属性存储&lt;/div&gt;" style="text;html=1;align=left;verticalAlign=middle;resizable=0;points=[];autosize=1;strokeColor=none;fillColor=none;" vertex="1" parent="1">
          <mxGeometry x="250" y="1340" width="110" height="60" as="geometry" />
        </mxCell>
        <mxCell id="K6t5aC2nOHL5v6KHXai5-76" value="javascript设计模式" style="text;html=1;align=center;verticalAlign=middle;resizable=0;points=[];autosize=1;strokeColor=none;fillColor=none;" vertex="1" parent="1">
          <mxGeometry x="530" y="1258" width="120" height="30" as="geometry" />
        </mxCell>
      </root>
    </mxGraphModel>
  </diagram>
</mxfile>
